<svg width="31" height="29" viewBox="0 0 31 29" fill="none" xmlns="http://www.w3.org/2000/svg">
<path d="M30.9366 27.7651C30.3091 26.5304 29.9041 25.236 29.722 23.882C29.7983 23.8519 29.8716 23.8159 29.9411 23.774C30.011 23.7325 30.0765 23.6855 30.1375 23.6336C30.1988 23.5813 30.2545 23.5249 30.3054 23.464C30.3559 23.4031 30.4007 23.3384 30.4396 23.2706C30.4781 23.2028 30.5107 23.1322 30.5365 23.0592C30.5619 22.9858 30.581 22.9114 30.593 22.8353C30.6049 22.7592 30.6098 22.6827 30.6079 22.6059C30.6057 22.5291 30.5967 22.4529 30.5806 22.3775C30.5642 22.3021 30.5414 22.2287 30.5118 22.1567C30.4819 22.0851 30.446 22.0163 30.4034 21.9502C30.3611 21.8841 30.3128 21.8218 30.2586 21.7633C30.2048 21.7048 30.1461 21.6509 30.0821 21.6017C30.0182 21.5526 29.9501 21.509 29.8783 21.4706C29.8065 21.4322 29.7313 21.3997 29.6535 21.373C29.5754 21.3464 29.4957 21.326 29.4138 21.3121C29.3323 21.2983 29.25 21.2907 29.1666 21.29H24.1059V1.30865C24.1048 1.22249 24.0943 1.13702 24.0753 1.0526C24.0558 0.96782 24.0278 0.885813 23.9915 0.806574C23.9548 0.72699 23.9103 0.651557 23.8576 0.580277C23.8052 0.508997 23.7458 0.442907 23.6792 0.382353C23.6126 0.321453 23.5408 0.267474 23.4627 0.219723C23.3849 0.172318 23.303 0.131834 23.2166 0.099308C23.1302 0.066436 23.0412 0.0415225 22.9496 0.0249135C22.858 0.0083045 22.7656 0 22.6721 0C22.579 0 22.4866 0.0083045 22.395 0.0249135C22.3033 0.0418685 22.2143 0.066436 22.128 0.099308C22.0416 0.131834 21.9597 0.172318 21.8815 0.219723C21.8037 0.267474 21.7315 0.321453 21.6653 0.382353C21.5988 0.442907 21.5393 0.508997 21.487 0.580277C21.4342 0.651557 21.3897 0.72699 21.3531 0.806574C21.3164 0.886159 21.2887 0.96782 21.2693 1.0526C21.2502 1.13702 21.2398 1.22249 21.2386 1.30865V13.0415H20.8115C20.8115 12.9554 20.8063 12.8692 20.7962 12.7834C20.7857 12.6976 20.7704 12.6128 20.7498 12.5284C20.7293 12.4443 20.7038 12.3616 20.6735 12.2799C20.6433 12.1983 20.6081 12.1187 20.5681 12.0405C20.5281 11.9626 20.4836 11.8869 20.4346 11.8135C20.3856 11.7401 20.3325 11.6695 20.2749 11.6014C20.2173 11.5336 20.156 11.4685 20.0909 11.4069C20.0254 11.3453 19.9566 11.2872 19.8845 11.2325C19.8123 11.1779 19.7371 11.127 19.6589 11.0803C19.5808 11.0332 19.5 10.9907 19.4166 10.9519C19.3332 10.9131 19.2476 10.8789 19.1601 10.8491C19.0725 10.8194 18.9835 10.7941 18.893 10.7734C18.8025 10.7526 18.7109 10.7363 18.6185 10.7249C18.5262 10.7135 18.4334 10.7069 18.3403 10.7052C18.2468 10.7031 18.1537 10.7062 18.0609 10.7138C17.9682 10.7215 17.8758 10.7339 17.7846 10.7509C17.761 10.6263 17.7285 10.5038 17.6862 10.3834C17.6439 10.2633 17.5931 10.146 17.5329 10.0325C17.4727 9.91903 17.4046 9.80969 17.3276 9.70519C17.2509 9.60035 17.1664 9.50104 17.0748 9.40761C16.9828 9.31384 16.884 9.22664 16.7789 9.14602C16.6735 9.0654 16.5628 8.99204 16.4461 8.9256C16.3298 8.85952 16.2086 8.80138 16.0833 8.75086C15.9577 8.70069 15.829 8.65882 15.6974 8.62526C15.5437 8.59239 15.3885 8.57093 15.2314 8.5609C15.074 8.55121 14.9173 8.55294 14.7602 8.56609C14.6035 8.57924 14.4487 8.60415 14.2961 8.64014C14.1435 8.67612 13.9947 8.72318 13.8503 8.78131C13.7056 8.83945 13.5672 8.90761 13.4344 8.98616C13.3017 9.0647 13.1764 9.15225 13.059 9.24948C12.9412 9.34637 12.8327 9.45121 12.7332 9.56436C12.6338 9.67716 12.5444 9.79689 12.4655 9.92318C12.3551 9.84221 12.237 9.77301 12.1102 9.71557C11.9838 9.65813 11.8521 9.61384 11.7153 9.5827C11.5788 9.55156 11.44 9.53426 11.299 9.5308C11.1584 9.52734 11.0185 9.53772 10.8802 9.56194C10.7882 9.57993 10.698 9.60381 10.6098 9.63322C10.5215 9.66263 10.4359 9.69792 10.3529 9.73841C10.2698 9.77924 10.1902 9.82491 10.1143 9.87612C10.038 9.92699 9.96617 9.98235 9.89848 10.0429C9.83079 10.1031 9.76796 10.1675 9.70999 10.2356C9.65202 10.3042 9.59967 10.3758 9.55255 10.4512C9.50542 10.5263 9.46429 10.6042 9.42876 10.6848C9.39361 10.7651 9.36443 10.8474 9.34162 10.9318C9.2571 10.9107 9.17184 10.8945 9.08545 10.8827C8.99906 10.8709 8.91229 10.8644 8.82478 10.8623C8.73765 10.8602 8.65051 10.863 8.56337 10.8706C8.47661 10.8782 8.39022 10.8903 8.30495 10.9076C8.21969 10.9246 8.13554 10.9464 8.05327 10.9727C7.97062 10.9993 7.89021 11.0301 7.81168 11.0654C7.73277 11.1007 7.65685 11.1401 7.58355 11.1837C7.50987 11.2273 7.43957 11.2751 7.37225 11.3266C7.30493 11.3779 7.24136 11.4329 7.18115 11.4913C7.12094 11.5502 7.06447 11.6118 7.01211 11.6765C6.96013 11.7412 6.91226 11.8087 6.8685 11.8785C6.82512 11.9484 6.78623 12.0208 6.75182 12.0952C6.71779 12.1695 6.68824 12.2453 6.66393 12.3228C6.63925 12.4007 6.62018 12.4792 6.60559 12.5588C6.59138 12.6388 6.58241 12.7187 6.57867 12.7997C6.57455 12.8803 6.57568 12.9609 6.58241 13.0415C6.57642 13.0415 5.65943 13.0415 5.65307 13.0415C5.58613 13.0415 5.52031 13.0477 5.45486 13.0599C5.38942 13.072 5.32584 13.0896 5.26413 13.1135C5.20243 13.137 5.14409 13.1661 5.08874 13.2003C5.03301 13.2346 4.98178 13.2737 4.93466 13.3173C4.88754 13.3609 4.84528 13.4083 4.80825 13.4595C4.77123 13.5107 4.73981 13.5651 4.71438 13.6221C4.68895 13.6789 4.66951 13.7377 4.65642 13.7983C4.64333 13.8588 4.6366 13.9201 4.6366 13.9817V14.8965C4.63847 14.9336 4.64258 14.9706 4.64856 15.0073C4.65492 15.0439 4.66315 15.0803 4.67399 15.1163C4.68447 15.1522 4.69718 15.1875 4.71177 15.2221C4.72673 15.2567 4.74355 15.2903 4.76225 15.3232C4.78095 15.3561 4.8019 15.3879 4.82433 15.4187C4.84677 15.4495 4.87146 15.4789 4.89726 15.5073C4.92344 15.5356 4.95111 15.5623 4.98066 15.5879C5.00983 15.6131 5.04049 15.637 5.07266 15.6595C5.10519 15.6817 5.13848 15.7021 5.17326 15.7211C5.20766 15.7401 5.24319 15.7571 5.28021 15.7723C5.31686 15.7875 5.35426 15.8007 5.39241 15.8121C5.43055 15.8235 5.46945 15.8329 5.50909 15.8405C5.54836 15.8477 5.588 15.8533 5.62801 15.8567C5.66803 15.8599 5.70805 15.8612 5.74844 15.8606C5.78845 15.8599 5.82847 15.8571 5.86848 15.8522C5.9085 15.8474 5.94777 15.8405 5.98666 15.8315L7.13552 27.8419C7.14113 27.9 7.15235 27.9571 7.16918 28.0131C7.18638 28.0692 7.20882 28.1235 7.2365 28.1758C7.26454 28.228 7.29745 28.2775 7.33523 28.3242C7.373 28.3706 7.41526 28.4138 7.46163 28.4529C7.508 28.4924 7.55812 28.5277 7.6116 28.5585C7.66508 28.5889 7.72117 28.6149 7.77989 28.636C7.8386 28.6574 7.89881 28.6734 7.96089 28.6841C8.0226 28.6948 8.08505 28.7 8.14826 28.7H13.2071V27.9377H8.14826C8.12395 27.9374 8.10039 27.9332 8.07795 27.9249C8.05551 27.9163 8.03531 27.9045 8.01774 27.8893C7.99979 27.874 7.98558 27.8561 7.9751 27.836C7.96426 27.8159 7.9579 27.7945 7.95603 27.7723L6.8139 15.8318H8.30308V19.2952C8.30308 19.3467 8.30682 19.3979 8.31393 19.4491C8.32066 19.5003 8.33113 19.5509 8.34497 19.6007C8.35881 19.6509 8.37564 19.6997 8.39583 19.7477C8.41602 19.7958 8.43959 19.8426 8.46614 19.8879C8.49269 19.9332 8.52186 19.9768 8.5544 20.019C8.58656 20.0609 8.62171 20.101 8.65911 20.1388C8.69688 20.1768 8.7369 20.2128 8.77916 20.246C8.82142 20.2796 8.86592 20.3104 8.91267 20.3388C8.95904 20.3671 9.00729 20.3931 9.0574 20.4159C9.10714 20.4388 9.15837 20.4588 9.2111 20.4758C9.26346 20.4927 9.31694 20.5069 9.37154 20.5176C9.42614 20.5287 9.48112 20.5363 9.53647 20.5412C9.59181 20.5457 9.64754 20.5474 9.70326 20.5457C9.75898 20.5439 9.81433 20.5391 9.86931 20.5311C9.92428 20.5232 9.97888 20.5121 10.0324 20.4979C10.0858 20.4837 10.1382 20.4668 10.1894 20.4467V20.4941C10.1902 20.545 10.1932 20.5955 10.1992 20.646C10.2051 20.6962 10.2134 20.7464 10.2246 20.7962C10.2358 20.8457 10.2496 20.8948 10.2657 20.9433C10.2822 20.9917 10.3009 21.0391 10.3222 21.0858C10.3435 21.1325 10.3674 21.1782 10.3936 21.2228C10.4198 21.2675 10.4482 21.3107 10.4789 21.3526C10.5096 21.3945 10.5425 21.4349 10.5776 21.474C10.6124 21.5131 10.6494 21.5505 10.6883 21.5862C10.7272 21.6218 10.768 21.6557 10.8106 21.6879C10.8532 21.7197 10.8974 21.7498 10.943 21.7779C10.9886 21.8059 11.0357 21.8318 11.084 21.8554C11.1326 21.8792 11.182 21.9007 11.2328 21.9201C11.2833 21.9394 11.3349 21.9564 11.3877 21.9709C11.44 21.9855 11.4931 21.9979 11.547 22.0076C11.6005 22.0176 11.6547 22.0249 11.7093 22.0298C11.7639 22.0349 11.8185 22.0374 11.8735 22.0374C11.9281 22.0374 11.983 22.0349 12.0373 22.0298C12.0919 22.0249 12.1461 22.0176 12.1999 22.0076C12.2538 21.9979 12.3069 21.9855 12.3593 21.9709C12.4116 21.9564 12.4632 21.9394 12.5141 21.9201C12.5649 21.9007 12.6143 21.8792 12.6626 21.8554C12.7112 21.8318 12.7583 21.8059 12.8039 21.7779C12.8495 21.7498 12.8937 21.7197 12.9363 21.6879C12.9786 21.6557 13.0193 21.6218 13.0582 21.5862C13.0975 21.5505 13.1341 21.5131 13.1693 21.474C13.2044 21.4349 13.237 21.3945 13.268 21.3526C13.2987 21.3107 13.3271 21.2671 13.3533 21.2228C13.3795 21.1782 13.403 21.1325 13.4243 21.0858C13.4457 21.0391 13.4647 20.9913 13.4808 20.9433C13.4973 20.8948 13.5111 20.8457 13.522 20.7958C13.5332 20.7464 13.5418 20.6962 13.5478 20.646C13.5534 20.5955 13.5567 20.545 13.5571 20.4941V18.9349C13.832 19.0266 14.1143 19.0599 14.4049 19.0346C14.4939 19.0346 14.5818 19.0266 14.6686 19.0104C14.7557 18.9945 14.8402 18.9706 14.9221 18.9391C15.0044 18.9076 15.0822 18.8692 15.1559 18.8235C15.2299 18.7779 15.298 18.726 15.3608 18.6678C15.4236 18.6097 15.4797 18.5467 15.5291 18.4782C15.5785 18.41 15.62 18.3381 15.654 18.2623C15.688 18.1862 15.7138 18.108 15.731 18.0277C15.7486 17.9471 15.7572 17.8657 15.7572 17.7834C15.7598 17.7841 15.7527 15.8266 15.7598 15.8318H20.0857L19.6395 20.5228L20.46 20.59L20.9129 15.8318H21.2386V21.2896H16.1776C16.0946 21.2907 16.0123 21.2983 15.9304 21.3121C15.8489 21.3263 15.7688 21.3464 15.691 21.373C15.6132 21.3997 15.5381 21.4322 15.4663 21.4706C15.3941 21.509 15.3264 21.5526 15.2625 21.6021C15.1985 21.6512 15.1398 21.7048 15.0859 21.7633C15.0317 21.8218 14.9838 21.8841 14.9412 21.9502C14.8989 22.0163 14.8627 22.0851 14.8331 22.1567C14.8032 22.2287 14.7804 22.3024 14.7643 22.3775C14.7479 22.4529 14.7389 22.5291 14.7366 22.6059C14.7348 22.6827 14.7396 22.7592 14.7516 22.8353C14.7636 22.9114 14.7826 22.9858 14.8084 23.0592C14.8342 23.1322 14.8664 23.2028 14.9053 23.2706C14.9438 23.3388 14.9887 23.4031 15.0396 23.464C15.09 23.5249 15.1461 23.5813 15.2071 23.6332C15.2681 23.6855 15.3335 23.7325 15.4034 23.774C15.473 23.8159 15.5463 23.8519 15.6226 23.882C15.4405 25.236 15.0354 26.5301 14.4079 27.7647C14.3825 27.8145 14.3642 27.8664 14.3529 27.9208C14.3421 27.9747 14.3384 28.0294 14.3421 28.0841C14.3458 28.1391 14.357 28.1927 14.3757 28.245C14.3944 28.2972 14.4195 28.3467 14.4517 28.3931C14.4838 28.4401 14.522 28.483 14.5657 28.5211C14.6099 28.5592 14.6581 28.5917 14.7108 28.6187C14.7639 28.6457 14.8193 28.6657 14.8776 28.6796C14.936 28.6934 14.9954 28.7003 15.0556 28.7H30.2889C30.3185 28.7 30.348 28.6979 30.3775 28.6945C30.4067 28.6907 30.4359 28.6855 30.4647 28.6785C30.4935 28.6716 30.5215 28.663 30.5492 28.6529C30.5765 28.6426 30.6034 28.6308 30.6296 28.6176C30.6554 28.6045 30.6805 28.5896 30.7044 28.5737C30.7283 28.5574 30.7515 28.5401 30.7732 28.5211C30.7949 28.5024 30.8151 28.4824 30.8342 28.4612C30.8529 28.4401 30.8705 28.418 30.8865 28.3952C30.9026 28.372 30.9172 28.3481 30.9299 28.3232C30.9426 28.2983 30.9538 28.273 30.9632 28.2471C30.9725 28.2208 30.98 28.1945 30.986 28.1675C30.9916 28.1405 30.9957 28.1131 30.998 28.0858C31.0002 28.0585 31.0006 28.0311 30.9991 28.0038C30.9976 27.9761 30.9942 27.9491 30.989 27.9218C30.9838 27.8948 30.977 27.8682 30.9681 27.8419C30.9595 27.8156 30.949 27.79 30.9366 27.7651ZM7.58579 12.2163C7.63852 12.1488 7.69761 12.0862 7.76231 12.0284C7.82701 11.9706 7.89694 11.9187 7.97174 11.8723C8.04653 11.826 8.12507 11.7862 8.20735 11.7526C8.28999 11.719 8.37489 11.6927 8.4624 11.6734C8.54991 11.6536 8.63854 11.6415 8.7283 11.6367C8.81805 11.6315 8.90781 11.6339 8.99719 11.6436C9.08657 11.6533 9.17445 11.6702 9.26047 11.6945C9.34648 11.7187 9.42988 11.7495 9.50991 11.7872C9.5417 11.8007 9.57461 11.81 9.60902 11.8159C9.64305 11.8215 9.67745 11.8232 9.71223 11.8211C9.74701 11.8187 9.78105 11.8125 9.81396 11.8021C9.84687 11.792 9.87791 11.7782 9.90745 11.7606C9.93662 11.7433 9.96317 11.7225 9.98674 11.699C10.0103 11.6754 10.0305 11.6495 10.0469 11.6211C10.0638 11.5927 10.0761 11.563 10.0847 11.5318C10.0933 11.5007 10.0974 11.4689 10.0974 11.4367C10.0929 11.3772 10.0937 11.3176 10.1001 11.2585C10.1064 11.199 10.118 11.1405 10.1348 11.083C10.1517 11.0256 10.1737 10.9695 10.2007 10.9156C10.2272 10.8612 10.259 10.8097 10.2953 10.7602C10.3315 10.7111 10.3719 10.6651 10.4164 10.6218C10.4609 10.5789 10.5092 10.5394 10.5608 10.5038C10.6124 10.4682 10.667 10.4367 10.7242 10.4097C10.7818 10.3824 10.8409 10.3599 10.9022 10.3419C10.9639 10.3239 11.0264 10.3107 11.0903 10.3021C11.1539 10.2938 11.2182 10.2903 11.2826 10.292C11.3469 10.2934 11.4108 10.3 11.474 10.3114C11.5373 10.3228 11.599 10.3388 11.6595 10.3599C11.7198 10.3806 11.7777 10.4062 11.8334 10.436C11.8892 10.4661 11.9419 10.5 11.9916 10.5381C12.041 10.5761 12.087 10.6176 12.1293 10.6626C12.1711 10.708 12.2089 10.7557 12.2426 10.8069C12.2863 10.8671 12.3439 10.9125 12.4157 10.9422C12.4875 10.9723 12.5623 10.982 12.6405 10.9723C12.7183 10.9626 12.7878 10.9343 12.848 10.8879C12.9086 10.8412 12.9513 10.7834 12.9759 10.7142C12.9958 10.6554 13.0186 10.5976 13.0444 10.5408C13.0698 10.4841 13.0982 10.4284 13.1297 10.374C13.1607 10.3197 13.1944 10.2668 13.231 10.2152C13.2677 10.1637 13.3065 10.1142 13.3481 10.0657C13.3896 10.0176 13.4333 9.97163 13.4797 9.92733C13.5257 9.8827 13.5739 9.84048 13.6244 9.80035C13.6745 9.76021 13.7269 9.72215 13.7811 9.6865C13.8354 9.65052 13.8911 9.6173 13.9487 9.5865C14.0063 9.55536 14.0653 9.52699 14.1256 9.50138C14.1861 9.47543 14.2475 9.45225 14.3103 9.43149C14.3731 9.41107 14.4367 9.39308 14.501 9.37785C14.5657 9.36298 14.6308 9.35052 14.6962 9.34083C14.7621 9.33149 14.8283 9.32491 14.8948 9.32076C14.961 9.31695 15.0276 9.31592 15.0942 9.31799C15.1604 9.31972 15.2269 9.32457 15.2927 9.33183C15.3589 9.33945 15.4244 9.34983 15.4895 9.36298C15.5994 9.39204 15.7064 9.42941 15.8096 9.47474C15.9132 9.52007 16.0119 9.57301 16.1061 9.63322C16.2004 9.69343 16.2886 9.76021 16.3709 9.83391C16.4532 9.90727 16.5287 9.98685 16.5972 10.0716C16.6652 10.1567 16.7258 10.246 16.7786 10.3401C16.8309 10.4343 16.875 10.5318 16.9102 10.6325C16.9457 10.7332 16.9719 10.836 16.9891 10.9408C17.0063 11.0453 17.0145 11.1509 17.013 11.2567C17.0138 11.2879 17.0187 11.3187 17.0273 11.3491C17.0362 11.3792 17.0489 11.408 17.0654 11.4353C17.0819 11.463 17.1017 11.4879 17.1249 11.5107C17.1477 11.5336 17.1735 11.5536 17.2019 11.5706C17.2303 11.5879 17.2606 11.6014 17.2928 11.6118C17.3246 11.6218 17.3575 11.6284 17.3911 11.6311C17.4248 11.6339 17.4585 11.6329 17.4921 11.628C17.5254 11.6232 17.5579 11.6145 17.589 11.6024C17.6645 11.5713 17.7419 11.5453 17.8216 11.5246C17.9012 11.5038 17.982 11.4886 18.0639 11.4785C18.1458 11.4685 18.2281 11.4637 18.3108 11.4647C18.3934 11.4657 18.4757 11.472 18.5572 11.4837C18.6387 11.4958 18.7191 11.5128 18.798 11.5353C18.8773 11.5578 18.954 11.5855 19.0288 11.6183C19.1036 11.6509 19.1754 11.6886 19.2442 11.7308C19.313 11.773 19.3781 11.8197 19.4398 11.8706C19.5266 11.9453 19.6043 12.0277 19.6724 12.1173C19.7408 12.2069 19.7981 12.3021 19.8448 12.4031C19.8916 12.5038 19.9263 12.608 19.9495 12.7156C19.9727 12.8232 19.9839 12.9318 19.9824 13.0415H7.40853C7.38422 12.8986 7.38721 12.7561 7.41788 12.6142C7.44817 12.4723 7.50427 12.3394 7.58579 12.2163ZM8.30047 15.0692H5.65307C5.62764 15.0695 5.60371 15.0654 5.58014 15.0567C5.55696 15.0481 5.53639 15.036 5.51806 15.0197C5.50011 15.0035 5.48628 14.9848 5.47618 14.9633C5.46608 14.9422 5.46122 14.9197 5.46047 14.8965V13.9817C5.46047 13.9581 5.46533 13.9353 5.47506 13.9135C5.48478 13.8917 5.49862 13.8723 5.51657 13.8557C5.53452 13.8388 5.55546 13.826 5.57902 13.817C5.60296 13.808 5.62727 13.8038 5.65307 13.8038H8.30047C8.30533 13.799 8.30495 15.074 8.30047 15.0692ZM14.4049 18.2723C14.0006 18.3028 13.5784 18.2374 13.5571 17.7834V14.4374H12.7332V20.4941C12.7325 20.546 12.7261 20.5972 12.7145 20.6477C12.7029 20.6983 12.6861 20.7474 12.664 20.7952C12.6424 20.8426 12.6154 20.8879 12.584 20.9304C12.5526 20.9734 12.5167 21.0128 12.4771 21.0491C12.437 21.0855 12.394 21.118 12.3473 21.1464C12.3005 21.1751 12.2512 21.199 12.1996 21.2187C12.148 21.2384 12.0945 21.2529 12.0395 21.263C11.9849 21.273 11.9292 21.2782 11.8735 21.2782C11.8174 21.2782 11.762 21.273 11.707 21.263C11.6524 21.2529 11.599 21.2384 11.5473 21.2187C11.4954 21.199 11.4464 21.1751 11.3996 21.1464C11.3529 21.118 11.3095 21.0855 11.2699 21.0491C11.2298 21.0128 11.1943 20.9734 11.1629 20.9304C11.1315 20.8879 11.1046 20.8426 11.0825 20.7952C11.0604 20.7474 11.044 20.6983 11.032 20.6477C11.0204 20.5972 11.0144 20.546 11.0137 20.4941V16.5567H10.1894V19.2952C10.1887 19.327 10.1846 19.3581 10.1771 19.3893C10.1696 19.4201 10.1591 19.4502 10.1453 19.4792C10.1315 19.5083 10.115 19.536 10.0956 19.5623C10.0757 19.5882 10.0537 19.6125 10.0294 19.6346C10.0047 19.6567 9.97813 19.6765 9.94934 19.6941C9.92054 19.7114 9.89025 19.726 9.85846 19.7381C9.82667 19.7498 9.79376 19.7592 9.7601 19.7651C9.72645 19.7713 9.69241 19.7744 9.65838 19.7744C9.62398 19.7744 9.58994 19.7713 9.55629 19.7651C9.52263 19.7588 9.48972 19.7498 9.45793 19.7381C9.42614 19.726 9.39585 19.7114 9.36705 19.6941C9.33863 19.6765 9.3117 19.6567 9.2874 19.6346C9.26271 19.6125 9.24065 19.5882 9.2212 19.5623C9.20175 19.536 9.18493 19.5083 9.17109 19.4792C9.15762 19.4502 9.14678 19.4201 9.1393 19.3893C9.13182 19.3581 9.12771 19.3266 9.12696 19.2952V13.8038H14.9334V17.7834C14.9334 17.8156 14.93 17.8474 14.9233 17.8789C14.9165 17.9104 14.9064 17.9408 14.893 17.9706C14.8799 18 14.8634 18.0284 14.8443 18.055C14.8249 18.0817 14.8028 18.1062 14.7785 18.1291C14.7538 18.1516 14.7273 18.172 14.6985 18.19C14.6697 18.2076 14.639 18.2228 14.6072 18.2349C14.5751 18.2474 14.5422 18.2567 14.5081 18.263C14.4741 18.2692 14.4397 18.2723 14.4049 18.2723ZM21.2364 15.0692H15.7598C15.755 15.074 15.755 13.7993 15.7598 13.8038H21.2364C21.2405 13.8 21.2405 15.0734 21.2364 15.0692ZM22.0625 1.30865C22.0633 1.27197 22.0677 1.23599 22.0763 1.20035C22.0846 1.16436 22.0965 1.12976 22.1122 1.09619C22.128 1.06263 22.147 1.0308 22.1695 1.00069C22.1919 0.970588 22.217 0.942561 22.2454 0.916955C22.2734 0.891349 22.3041 0.868512 22.3374 0.848443C22.3703 0.828374 22.4051 0.811419 22.4417 0.797578C22.4784 0.783737 22.5161 0.773356 22.5547 0.766436C22.5936 0.759169 22.6328 0.755709 22.6721 0.755709C22.7117 0.755709 22.751 0.759169 22.7899 0.766436C22.8284 0.773356 22.8662 0.783737 22.9028 0.797578C22.9395 0.811419 22.9743 0.828374 23.0072 0.848443C23.0401 0.868512 23.0708 0.891349 23.0992 0.916955C23.1272 0.942561 23.1527 0.970588 23.1751 1.00069C23.1975 1.0308 23.2166 1.06263 23.2319 1.09619C23.2476 1.12976 23.26 1.16436 23.2682 1.20035C23.2768 1.23599 23.2813 1.27197 23.2821 1.30865V21.2896H22.0625V1.30865ZM16.1776 22.0522H29.167C29.2081 22.0526 29.2485 22.0567 29.2889 22.0647C29.3293 22.0727 29.3682 22.0841 29.406 22.099C29.4437 22.1142 29.4796 22.1322 29.5137 22.1536C29.5477 22.1751 29.5791 22.1993 29.6079 22.2266C29.6371 22.2536 29.6625 22.283 29.6853 22.3149C29.7081 22.3467 29.7272 22.3803 29.7429 22.4152C29.7582 22.4505 29.7702 22.4868 29.7781 22.5242C29.7859 22.5616 29.79 22.5993 29.79 22.6374C29.79 22.6754 29.7859 22.7131 29.7781 22.7505C29.7702 22.7879 29.7582 22.8239 29.7429 22.8592C29.7272 22.8945 29.7081 22.928 29.6853 22.9599C29.6625 22.9913 29.6367 23.0208 29.6079 23.0481C29.5791 23.0751 29.5477 23.0993 29.5137 23.1208C29.4796 23.1422 29.4437 23.1606 29.406 23.1754C29.3682 23.1903 29.3289 23.2017 29.2889 23.2097C29.2485 23.2176 29.2077 23.2218 29.1666 23.2225H16.1776C16.1364 23.2218 16.0957 23.2176 16.0557 23.2097C16.0153 23.2017 15.9764 23.1903 15.9386 23.1754C15.9005 23.1606 15.8646 23.1422 15.8309 23.1208C15.7969 23.0993 15.7655 23.0751 15.7363 23.0481C15.7075 23.0208 15.6817 22.9913 15.6592 22.9599C15.6364 22.928 15.6174 22.8945 15.6017 22.8592C15.5859 22.8239 15.5744 22.7879 15.5665 22.7505C15.5583 22.7131 15.5545 22.6754 15.5545 22.6374C15.5545 22.5993 15.5583 22.5616 15.5665 22.5242C15.5744 22.4868 15.5859 22.4505 15.6017 22.4152C15.6174 22.3799 15.6364 22.3467 15.6592 22.3149C15.6817 22.283 15.7075 22.2536 15.7363 22.2266C15.7655 22.1993 15.7969 22.1751 15.8309 22.1536C15.8646 22.1322 15.9005 22.1142 15.9386 22.099C15.9764 22.0841 16.0153 22.0727 16.0557 22.0647C16.0957 22.0567 16.1364 22.0526 16.1776 22.0522ZM26.9549 27.9377L26.9489 25.9616L26.125 25.9637L26.131 27.9377H24.3595L24.3531 25.9616L23.5293 25.9637L23.5352 27.9377H21.7637L21.7573 25.9616L20.9335 25.9637L20.9394 27.9377H19.1679L19.1619 25.9612L18.3377 25.964L18.344 27.9377H15.2288C15.5871 27.2066 15.8754 26.4526 16.0938 25.6754C16.2464 25.1187 16.3612 24.555 16.4382 23.9848H28.9059C29.0911 25.3595 29.4942 26.6772 30.1158 27.9377H26.9549Z" fill="black"/>
<path d="M7.49238 8.18062C7.54549 8.17993 7.59859 8.17681 7.65132 8.17162C7.70405 8.16609 7.75641 8.15847 7.80839 8.14809C7.86038 8.13806 7.91161 8.1256 7.96247 8.11107C8.01296 8.09619 8.0627 8.07923 8.11169 8.05986C8.16068 8.04083 8.20818 8.01937 8.25492 7.99584C8.30167 7.97231 8.34692 7.94671 8.39068 7.91903C8.43481 7.89135 8.47707 7.86193 8.51783 7.83045C8.55859 7.79896 8.59786 7.76574 8.63488 7.73079C8.67228 7.69584 8.70781 7.65951 8.74109 7.6211C8.77475 7.58304 8.80617 7.54359 8.83534 7.50242C8.86451 7.46159 8.89181 7.41937 8.91649 7.37577C8.94117 7.33252 8.96399 7.28789 8.98418 7.24256C9.00438 7.19723 9.02195 7.15086 9.03729 7.1038C9.05262 7.05674 9.06533 7.00899 9.07543 6.9609C9.0859 6.9128 9.09376 6.86401 9.09862 6.81522C9.10385 6.76643 9.10647 6.7173 9.10647 6.66816C9.10647 6.61903 9.10385 6.56989 9.09862 6.5211C9.09376 6.47231 9.0859 6.42353 9.07543 6.37543C9.06533 6.32733 9.05262 6.27958 9.03729 6.23252C9.02195 6.18546 9.004 6.13944 8.98418 6.09377C8.96399 6.04844 8.94117 6.0038 8.91649 5.96055C8.89181 5.91695 8.86451 5.87474 8.83534 5.83391C8.80579 5.79308 8.77475 5.75328 8.74109 5.71522C8.70781 5.67716 8.67228 5.64048 8.63488 5.60553C8.59749 5.57058 8.55859 5.53737 8.51783 5.50588C8.47707 5.47439 8.43443 5.44498 8.39068 5.4173C8.34692 5.38962 8.30167 5.36401 8.25492 5.34048C8.20818 5.31695 8.16068 5.29584 8.11169 5.27647C8.0627 5.25709 8.01296 5.24013 7.96247 5.2256C7.91161 5.21072 7.86038 5.19827 7.80839 5.18823C7.75641 5.1782 7.70405 5.17024 7.65132 5.16505C7.59859 5.15951 7.54549 5.1564 7.49238 5.15605C7.43928 5.1564 7.38654 5.15951 7.33381 5.16505C7.28071 5.17024 7.22835 5.1782 7.17637 5.18823C7.12438 5.19827 7.07315 5.21072 7.02266 5.2256C6.9718 5.24013 6.92206 5.25709 6.87345 5.27647C6.82445 5.29584 6.77658 5.31695 6.73021 5.34048C6.68346 5.36401 6.63821 5.38962 6.59446 5.4173C6.55033 5.44498 6.50807 5.47439 6.4673 5.50588C6.42654 5.53737 6.38727 5.57058 6.34988 5.60553C6.31285 5.64048 6.27732 5.67716 6.24367 5.71522C6.21038 5.75328 6.17897 5.79308 6.1498 5.83391C6.12025 5.87508 6.09333 5.9173 6.06864 5.96055C6.04359 6.00415 6.02115 6.04844 6.00095 6.09377C5.98076 6.13944 5.96318 6.18546 5.94785 6.23252C5.93252 6.27958 5.9198 6.32733 5.90933 6.37543C5.89923 6.42387 5.89138 6.47231 5.88614 6.5211C5.88128 6.57024 5.87866 6.61903 5.87866 6.66816C5.87866 6.7173 5.88128 6.76643 5.88614 6.81522C5.89138 6.86436 5.89923 6.9128 5.90933 6.9609C5.9198 7.00899 5.93252 7.05674 5.94785 7.1038C5.96318 7.15086 5.98076 7.19723 6.00095 7.24256C6.02115 7.28789 6.04359 7.33252 6.06864 7.37577C6.09333 7.41937 6.12063 7.46159 6.1498 7.50242C6.17897 7.54359 6.21038 7.58304 6.24404 7.6211C6.27732 7.65951 6.31285 7.69584 6.34988 7.73079C6.38727 7.76574 6.42654 7.79896 6.4673 7.83045C6.50807 7.86193 6.55033 7.89135 6.59446 7.91903C6.63821 7.94671 6.68346 7.97231 6.73021 7.99584C6.77658 8.01937 6.82445 8.04083 6.87345 8.05986C6.92206 8.07923 6.9718 8.09619 7.02266 8.11107C7.07315 8.1256 7.12476 8.13806 7.17674 8.14809C7.22873 8.15847 7.28108 8.16609 7.33381 8.17162C7.38654 8.17681 7.43928 8.17993 7.49238 8.18062ZM7.49238 5.91834C7.54511 5.91903 7.59747 5.92456 7.64908 5.9346C7.70069 5.94463 7.75043 5.95917 7.79904 5.97854C7.84766 5.99757 7.89366 6.0211 7.93704 6.04844C7.9808 6.07577 8.02119 6.10692 8.05821 6.14186C8.09523 6.17647 8.12814 6.21418 8.15731 6.25501C8.18611 6.29584 8.21079 6.33875 8.23061 6.38373C8.25081 6.42906 8.26577 6.47543 8.27587 6.52318C8.28634 6.57128 8.2912 6.61937 8.2912 6.66816C8.2912 6.71695 8.28634 6.76539 8.27587 6.81314C8.26577 6.86124 8.25081 6.90761 8.23061 6.95259C8.21079 6.99792 8.18611 7.04083 8.15731 7.08166C8.12814 7.12214 8.09523 7.15986 8.05821 7.19481C8.02119 7.22941 7.9808 7.26055 7.93704 7.28789C7.89366 7.31557 7.84766 7.33875 7.79904 7.35813C7.75043 7.37716 7.70069 7.39169 7.64908 7.40207C7.59747 7.41211 7.54511 7.4173 7.49238 7.41834C7.43965 7.41764 7.38767 7.41211 7.33606 7.40207C7.28445 7.39204 7.23433 7.37716 7.18572 7.35813C7.1371 7.3391 7.0911 7.31557 7.04735 7.28823C7.00396 7.2609 6.96357 7.22975 6.92655 7.19481C6.88953 7.1602 6.85624 7.12249 6.82707 7.08166C6.79828 7.04083 6.77359 6.99792 6.7534 6.95294C6.73358 6.90761 6.71824 6.86124 6.70815 6.81314C6.69805 6.76539 6.69281 6.71695 6.69281 6.66816C6.69281 6.61937 6.69805 6.57093 6.70815 6.52318C6.71862 6.47508 6.73358 6.42872 6.7534 6.38339C6.77359 6.3384 6.79828 6.2955 6.82707 6.25467C6.85624 6.21384 6.88953 6.17612 6.92655 6.14152C6.96357 6.10657 7.00396 6.07577 7.04735 6.04809C7.0911 6.02076 7.1371 5.99723 7.18572 5.9782C7.23433 5.95917 7.28445 5.94463 7.33606 5.93425C7.38767 5.92422 7.43965 5.91903 7.49238 5.91834Z" fill="black"/>
<path d="M14.7527 6.3443C18.3518 6.23841 18.3507 1.40969 14.7527 1.3045C11.1539 1.41039 11.1546 6.23876 14.7527 6.3443ZM14.7527 2.06679C14.8144 2.06748 14.8761 2.07094 14.9374 2.07717C14.9987 2.0834 15.0597 2.09205 15.1203 2.10381C15.1805 2.11558 15.2403 2.13011 15.2994 2.14706C15.3581 2.16402 15.4161 2.18374 15.4729 2.20623C15.5298 2.22838 15.5855 2.25329 15.6397 2.28063C15.694 2.30796 15.7467 2.33772 15.7979 2.3699C15.8488 2.40174 15.8981 2.43599 15.9456 2.47267C15.9931 2.50935 16.0388 2.54776 16.0821 2.58859C16.1255 2.62907 16.1667 2.67163 16.2056 2.71592C16.2448 2.76021 16.2811 2.80623 16.3155 2.85399C16.3495 2.90174 16.381 2.95053 16.4097 3.00104C16.4389 3.05156 16.4651 3.10347 16.4887 3.15606C16.5118 3.209 16.5328 3.26298 16.5504 3.31765C16.5683 3.37232 16.5833 3.42769 16.5952 3.48374C16.6072 3.5398 16.6162 3.5962 16.6222 3.65329C16.6282 3.71004 16.6311 3.76713 16.6311 3.82423C16.6311 3.88132 16.6282 3.93841 16.6222 3.99551C16.6162 4.05226 16.6072 4.10866 16.5952 4.16471C16.5833 4.22077 16.5683 4.27613 16.5504 4.33115C16.5328 4.38582 16.5118 4.43945 16.4887 4.49239C16.4651 4.54533 16.4389 4.59689 16.4097 4.64741C16.381 4.69793 16.3495 4.74706 16.3151 4.79482C16.2811 4.84222 16.2448 4.88824 16.2056 4.93288C16.1667 4.97717 16.1255 5.01973 16.0821 5.06021C16.0388 5.1007 15.9931 5.13945 15.9456 5.17613C15.8981 5.21246 15.8488 5.24672 15.7979 5.2789C15.7467 5.31108 15.694 5.34084 15.6397 5.36817C15.5855 5.39551 15.5298 5.42007 15.4729 5.44257C15.4161 5.46471 15.3581 5.48443 15.2994 5.50139C15.2403 5.51869 15.1805 5.53288 15.1203 5.54464C15.0597 5.55641 14.9987 5.5654 14.9374 5.57163C14.8761 5.57786 14.8144 5.58097 14.7527 5.58167C14.6906 5.58097 14.6292 5.57786 14.5679 5.57163C14.5062 5.5654 14.4452 5.55641 14.385 5.54464C14.3244 5.53288 14.2646 5.51869 14.2059 5.50139C14.1468 5.48443 14.0888 5.46471 14.032 5.44257C13.9751 5.42007 13.9198 5.39516 13.8652 5.36817C13.811 5.34084 13.7582 5.31108 13.7074 5.2789C13.6561 5.24672 13.6068 5.21246 13.5593 5.17613C13.5118 5.13945 13.4665 5.1007 13.4228 5.06021C13.3794 5.01973 13.3383 4.97717 13.2994 4.93288C13.2605 4.88824 13.2238 4.84222 13.1898 4.79482C13.1558 4.74706 13.124 4.69793 13.0952 4.64741C13.0664 4.59689 13.0402 4.54533 13.0166 4.49239C12.9931 4.43945 12.9725 4.38582 12.9546 4.33115C12.937 4.27613 12.922 4.22077 12.9101 4.16471C12.8981 4.10866 12.8891 4.05226 12.8831 3.99551C12.8771 3.93841 12.8742 3.88132 12.8742 3.82423C12.8742 3.76713 12.8771 3.71004 12.8831 3.65329C12.8891 3.5962 12.8981 3.5398 12.9101 3.48374C12.922 3.42769 12.937 3.37232 12.9546 3.31765C12.9725 3.26298 12.9931 3.209 13.0166 3.15606C13.0402 3.10347 13.0664 3.05156 13.0952 3.00104C13.124 2.95053 13.1558 2.90174 13.1898 2.85399C13.2238 2.80623 13.2605 2.76021 13.2994 2.71592C13.3383 2.67163 13.3794 2.62907 13.4232 2.58824C13.4665 2.54776 13.5118 2.50935 13.5593 2.47267C13.6068 2.43599 13.6561 2.40174 13.7074 2.36956C13.7586 2.33772 13.811 2.30796 13.8656 2.28063C13.9198 2.25329 13.9751 2.22838 14.032 2.20623C14.0888 2.18374 14.1468 2.16402 14.2059 2.14706C14.265 2.13011 14.3244 2.11558 14.385 2.10381C14.4456 2.09205 14.5066 2.0834 14.5679 2.07717C14.6292 2.07094 14.6909 2.06748 14.7527 2.06679Z" fill="black"/>
<path d="M18.7573 8.96608C18.8567 8.96504 18.9551 8.95501 19.0523 8.93598C19.1496 8.91729 19.2442 8.88996 19.3358 8.85397C19.4271 8.81798 19.5142 8.77439 19.5965 8.72248C19.6788 8.67093 19.7547 8.61245 19.8246 8.54705C19.8945 8.48165 19.957 8.41072 20.0116 8.3339C20.0666 8.25708 20.1129 8.17612 20.1507 8.09134C20.1885 8.00622 20.2169 7.91833 20.2364 7.82837C20.2554 7.73805 20.2652 7.6467 20.2652 7.55501C20.2652 7.46297 20.2554 7.37162 20.2364 7.28165C20.2169 7.19134 20.1885 7.10345 20.1507 7.01868C20.1129 6.93356 20.0666 6.85259 20.0116 6.77577C19.957 6.6993 19.8945 6.62802 19.8246 6.56262C19.7547 6.49722 19.6788 6.43875 19.5965 6.38719C19.5142 6.33563 19.4271 6.29169 19.3354 6.2557C19.2442 6.21971 19.1496 6.19238 19.0523 6.17369C18.9551 6.15466 18.8567 6.14497 18.7573 6.14394C18.6578 6.14497 18.5594 6.15466 18.4622 6.17369C18.365 6.19238 18.2704 6.21971 18.1787 6.2557C18.0875 6.29169 18.0003 6.33563 17.9181 6.38719C17.8358 6.43875 17.7599 6.49722 17.6899 6.56262C17.62 6.62802 17.5575 6.6993 17.5026 6.77577C17.448 6.85259 17.4016 6.93356 17.3638 7.01868C17.3261 7.1038 17.2973 7.19134 17.2782 7.28165C17.2587 7.37196 17.2494 7.46297 17.2494 7.55501C17.2494 7.64705 17.2591 7.73805 17.2782 7.82837C17.2976 7.91833 17.3261 8.00622 17.3638 8.09134C17.4016 8.17646 17.448 8.25708 17.5029 8.3339C17.5575 8.41072 17.62 8.48165 17.6899 8.54705C17.7599 8.61245 17.8358 8.67093 17.9181 8.72248C18.0003 8.77439 18.0875 8.81798 18.1791 8.85397C18.2704 8.88996 18.365 8.91729 18.4622 8.93598C18.5594 8.95501 18.6578 8.96504 18.7573 8.96608ZM18.7573 6.90622C18.8029 6.90691 18.8481 6.91141 18.8927 6.92006C18.9372 6.92906 18.9805 6.94151 19.0224 6.95812C19.0643 6.97473 19.1043 6.9948 19.1421 7.01868C19.1799 7.04255 19.2146 7.06954 19.2464 7.0993C19.2786 7.1294 19.307 7.16228 19.3325 7.19722C19.3575 7.23252 19.3788 7.26989 19.396 7.30864C19.4132 7.34774 19.4263 7.38823 19.4353 7.4294C19.4439 7.47093 19.4484 7.51279 19.4484 7.55501C19.4484 7.59722 19.4439 7.63875 19.4353 7.68027C19.4263 7.72179 19.4132 7.76193 19.396 7.80103C19.3788 7.84013 19.3575 7.87715 19.3325 7.91245C19.307 7.94774 19.2786 7.98027 19.2464 8.01037C19.2146 8.04048 19.1795 8.06747 19.1421 8.09099C19.1043 8.11487 19.0643 8.13494 19.0224 8.15155C18.9805 8.16816 18.9372 8.18061 18.8927 8.18961C18.8481 8.19826 18.8029 8.20311 18.7573 8.20345C18.7116 8.20311 18.6664 8.19826 18.6219 8.18961C18.5774 8.18061 18.534 8.16816 18.4921 8.15155C18.4502 8.13494 18.4102 8.11487 18.3724 8.09099C18.3347 8.06712 18.2999 8.04048 18.2681 8.01037C18.2359 7.98027 18.2075 7.94774 18.1821 7.91245C18.157 7.87715 18.1357 7.84013 18.1185 7.80103C18.1013 7.76193 18.0882 7.72179 18.0792 7.68027C18.0706 7.63875 18.0662 7.59722 18.0662 7.55501C18.0662 7.51279 18.0706 7.47093 18.0792 7.4294C18.0882 7.38788 18.1013 7.34774 18.1185 7.30864C18.1357 7.26954 18.157 7.23252 18.1821 7.19722C18.2075 7.16228 18.2359 7.1294 18.2681 7.0993C18.2999 7.06954 18.335 7.04255 18.3724 7.01868C18.4102 6.9948 18.4502 6.97473 18.4921 6.95812C18.534 6.94151 18.5774 6.92906 18.6219 6.92006C18.6664 6.91141 18.7116 6.90691 18.7573 6.90622Z" fill="black"/>
<path d="M4.49148 16.7547V15.0678C4.49148 15.0242 4.48662 14.9813 4.47765 14.9391C4.4683 14.8965 4.45483 14.8554 4.43688 14.8152C4.41893 14.7751 4.39687 14.737 4.37106 14.701C4.34488 14.665 4.31534 14.6318 4.28243 14.601C4.24915 14.5706 4.21324 14.5432 4.17435 14.519C4.13508 14.4948 4.09432 14.4747 4.05094 14.4581C4.00756 14.4415 3.96305 14.4287 3.91705 14.4204C3.87105 14.4118 3.82468 14.4076 3.77793 14.4076H2.24125C2.19413 14.4076 2.14776 14.4118 2.10213 14.4204C2.05613 14.4287 2.01163 14.4415 1.96825 14.4581C1.92487 14.4747 1.88373 14.4948 1.84484 14.519C1.80594 14.5432 1.77004 14.5706 1.73676 14.601C1.70385 14.6318 1.6743 14.665 1.64812 14.701C1.62195 14.737 1.60025 14.7751 1.5823 14.8152C1.56435 14.8554 1.55052 14.8965 1.54154 14.9391C1.53219 14.9813 1.5277 15.0242 1.5277 15.0678V16.7547C1.42075 16.7751 1.31641 16.8041 1.21468 16.8412C1.11296 16.8782 1.01535 16.9232 0.921858 16.9754C0.828363 17.028 0.740478 17.0875 0.658203 17.154C0.575553 17.2204 0.50001 17.2927 0.430823 17.3713C0.362011 17.4498 0.300679 17.5329 0.246826 17.6211C0.193347 17.7093 0.148096 17.801 0.111446 17.8962C0.0747957 17.9913 0.0471213 18.0889 0.0284224 18.1886C0.0097234 18.2882 0 18.3886 0 18.49V28.0377C0 28.081 0.00448777 28.1239 0.0138372 28.1664C0.0228127 28.209 0.0366499 28.2502 0.0546009 28.2903C0.0725519 28.3301 0.0942427 28.3682 0.120421 28.4041C0.146226 28.4401 0.17577 28.4737 0.209054 28.5041C0.242338 28.5349 0.27824 28.5623 0.317134 28.5865C0.356028 28.6104 0.397165 28.6308 0.440173 28.6474C0.483554 28.664 0.528058 28.6765 0.574057 28.6851C0.620057 28.6934 0.66643 28.6979 0.713177 28.6979H5.30638C5.35313 28.6979 5.3995 28.6934 5.4455 28.6851C5.4915 28.6765 5.53601 28.664 5.57901 28.6474C5.6224 28.6308 5.66353 28.6104 5.70243 28.5865C5.74132 28.5623 5.7776 28.5349 5.81051 28.5045C5.84379 28.4737 5.87334 28.4405 5.89914 28.4045C5.92532 28.3682 5.94738 28.3304 5.96533 28.2903C5.98329 28.2502 5.99675 28.209 6.00572 28.1664C6.01507 28.1239 6.01956 28.081 6.01956 28.0377V18.49C6.01956 18.3886 6.01021 18.2882 5.99151 18.1886C5.97281 18.0889 5.94514 17.9913 5.90812 17.8962C5.87147 17.8007 5.82621 17.709 5.77274 17.6211C5.71888 17.5329 5.65755 17.4495 5.58836 17.3713C5.51955 17.2927 5.44363 17.2204 5.36136 17.154C5.27871 17.0875 5.19082 17.028 5.09733 16.9754C5.00384 16.9228 4.90623 16.8782 4.8045 16.8412C4.70278 16.8038 4.59844 16.7751 4.49148 16.7547ZM3.66761 15.1699V16.7183H2.35158V15.1699H3.66761ZM1.9144 17.4806H4.10479C4.17659 17.4806 4.24728 17.4872 4.31758 17.5C4.38789 17.5131 4.45596 17.5322 4.52215 17.5578C4.58835 17.583 4.65117 17.6142 4.71064 17.6509C4.7701 17.6879 4.82545 17.7298 4.87593 17.7765C4.92642 17.8232 4.97167 17.8744 5.01169 17.9294C5.05133 17.9844 5.08499 18.0426 5.11229 18.1038C5.13996 18.165 5.16053 18.228 5.17474 18.2931C5.18858 18.3581 5.19569 18.4235 5.19569 18.49V19.4491H0.823875V18.49C0.823875 18.4235 0.830981 18.3581 0.845192 18.2931C0.859029 18.228 0.879598 18.165 0.907272 18.1038C0.934573 18.0426 0.968231 17.9844 1.00787 17.9294C1.04789 17.8744 1.09314 17.8235 1.14363 17.7765C1.19411 17.7298 1.24946 17.6879 1.30893 17.6509C1.36839 17.6142 1.43122 17.583 1.49741 17.5578C1.56323 17.5322 1.63167 17.5131 1.7016 17.5C1.77191 17.4872 1.84297 17.4806 1.9144 17.4806ZM5.19569 20.2114V25.1993H0.823875V20.2114H5.19569ZM0.823875 27.9356V25.9616H5.19569V27.9356H0.823875Z" fill="black"/>
</svg>
