<svg width="24" height="32" viewBox="0 0 24 32" fill="none" xmlns="http://www.w3.org/2000/svg">
<path d="M20.5529 2.25419C16.2356 -1.258 9.16276 -0.578853 5.70767 3.68383C2.86602 7.18946 3.26628 12.3789 6.74664 15.4298C7.15589 15.7877 7.40289 16.0106 7.49108 16.0982C7.56172 16.1672 7.5767 16.2679 7.52961 16.3504C6.74963 17.6952 1.81079 26.4778 0.527808 28.8415C0.162649 29.5125 -0.0137226 29.99 0.000832292 30.2684C0.0654735 31.5419 1.92851 32.3853 3.03512 31.7621C3.31766 31.6028 3.7329 31.022 4.28299 30.0216C7.94443 23.3397 10.1401 19.3238 10.867 17.9682C10.9111 17.8888 11.0112 17.8464 11.1084 17.8676C13.4924 18.4113 15.7322 18.2891 17.8247 17.5066C24.8089 14.8914 26.0804 6.7529 20.5529 2.25419ZM9.6007 17.5506L2.39042 30.6425C2.32021 30.7725 2.14341 30.8257 1.99957 30.7609L1.45119 30.5156C1.30778 30.4516 1.24871 30.2923 1.31977 30.1635L8.53048 17.072C8.60068 16.9416 8.77748 16.8888 8.92132 16.9536L9.46927 17.1988C9.61311 17.2629 9.67219 17.4217 9.60112 17.5506H9.6007ZM11.4291 16.6419C11.3833 16.6323 11.3507 16.5907 11.3674 16.5278C11.3764 16.4935 11.4145 16.4696 11.4556 16.475C16.7797 17.1352 21.1004 13.7349 20.6826 8.83275C20.4617 6.24923 18.287 3.92255 15.3996 3.55656C12.9715 3.24611 10.4522 4.79028 10.0254 6.95729C9.67219 8.75061 10.9346 10.8247 13.1568 10.6072C13.7424 10.5516 14.1226 10.3245 14.4544 9.92918C14.9043 9.3935 14.0609 8.67116 13.5511 9.25852C13.2814 9.56936 12.6859 9.57013 12.3738 9.42435C11.6148 9.07147 11.2351 8.49299 11.2351 7.69197C11.2377 5.99431 12.8918 4.70274 14.8199 4.71045C15.5027 4.71315 16.2176 4.91755 16.9681 5.32326C19.6261 6.77141 20.0293 9.77453 18.7108 12.1911C17.0743 15.1938 13.0511 16.1352 9.65164 14.8938C7.8267 14.2281 6.56128 13.2362 5.85793 11.9203C4.23291 8.88829 5.46323 5.10845 8.30659 3.02358C8.33613 3.00237 8.37722 3.00507 8.40633 3.02628C8.43287 3.04981 8.43587 3.08991 8.41233 3.11614C5.91957 6.08455 6.16658 10.456 9.74282 12.5914C12.0622 13.9763 15.1551 13.6446 16.7857 11.5597C18.016 9.98394 17.8041 7.38692 15.6025 6.71047C14.6932 6.43203 13.9171 6.56007 13.2895 7.11387C12.724 7.61291 13.4351 8.44594 14.1692 7.94921C14.4368 7.76872 14.7639 7.60443 15.114 7.72938C15.641 7.91758 15.9766 8.25195 16.1235 8.73711C16.7652 10.8274 14.5845 12.3341 12.4269 12.2069C11.1701 12.1351 10.0549 11.5435 9.08057 10.4375C8.02405 9.23576 7.84725 7.13508 8.42132 5.60441C9.48982 2.77406 12.4445 1.31242 15.6706 1.58585C18.7224 1.84578 21.189 3.93875 22.1629 6.52497C24.4322 12.5463 18.478 18.5255 11.4291 16.6419Z" fill="#010101"/>
</svg>
